<mxfile host="Electron" agent="Mozilla/5.0 (Windows NT 10.0; Win64; x64) AppleWebKit/537.36 (KHTML, like Gecko) draw.io/28.2.5 Chrome/138.0.7204.251 Electron/37.6.1 Safari/537.36" version="28.2.5">
  <diagram name="Page-1" id="I8vYod6gdMmHzipCI5QF">
    <mxGraphModel dx="772" dy="501" grid="1" gridSize="10" guides="1" tooltips="1" connect="1" arrows="1" fold="1" page="1" pageScale="1" pageWidth="850" pageHeight="1100" math="0" shadow="0">
      <root>
        <mxCell id="0" />
        <mxCell id="1" parent="0" />
        <mxCell id="HRV68TSzs3BOlZ1G72W8-13" style="edgeStyle=orthogonalEdgeStyle;rounded=0;orthogonalLoop=1;jettySize=auto;html=1;exitX=0.5;exitY=1;exitDx=0;exitDy=0;" edge="1" parent="1" source="HRV68TSzs3BOlZ1G72W8-1" target="HRV68TSzs3BOlZ1G72W8-2">
          <mxGeometry relative="1" as="geometry" />
        </mxCell>
        <mxCell id="HRV68TSzs3BOlZ1G72W8-1" value="Bắt đầu chương trình" style="ellipse;whiteSpace=wrap;html=1;" vertex="1" parent="1">
          <mxGeometry x="320" y="40" width="120" height="80" as="geometry" />
        </mxCell>
        <mxCell id="HRV68TSzs3BOlZ1G72W8-14" style="edgeStyle=orthogonalEdgeStyle;rounded=0;orthogonalLoop=1;jettySize=auto;html=1;exitX=0.5;exitY=1;exitDx=0;exitDy=0;" edge="1" parent="1" source="HRV68TSzs3BOlZ1G72W8-2" target="HRV68TSzs3BOlZ1G72W8-3">
          <mxGeometry relative="1" as="geometry" />
        </mxCell>
        <mxCell id="HRV68TSzs3BOlZ1G72W8-2" value="Nhập vào 2 số nguyên a, b" style="shape=parallelogram;perimeter=parallelogramPerimeter;whiteSpace=wrap;html=1;fixedSize=1;" vertex="1" parent="1">
          <mxGeometry x="320" y="160" width="120" height="60" as="geometry" />
        </mxCell>
        <mxCell id="HRV68TSzs3BOlZ1G72W8-6" style="edgeStyle=orthogonalEdgeStyle;rounded=0;orthogonalLoop=1;jettySize=auto;html=1;exitX=0;exitY=0.5;exitDx=0;exitDy=0;entryX=0.5;entryY=0;entryDx=0;entryDy=0;" edge="1" parent="1" source="HRV68TSzs3BOlZ1G72W8-3" target="HRV68TSzs3BOlZ1G72W8-4">
          <mxGeometry relative="1" as="geometry" />
        </mxCell>
        <mxCell id="HRV68TSzs3BOlZ1G72W8-3" value="So sánh a và b" style="rhombus;whiteSpace=wrap;html=1;" vertex="1" parent="1">
          <mxGeometry x="320" y="260" width="120" height="80" as="geometry" />
        </mxCell>
        <mxCell id="HRV68TSzs3BOlZ1G72W8-9" style="edgeStyle=orthogonalEdgeStyle;rounded=0;orthogonalLoop=1;jettySize=auto;html=1;exitX=0.5;exitY=1;exitDx=0;exitDy=0;entryX=0;entryY=0.5;entryDx=0;entryDy=0;" edge="1" parent="1" source="HRV68TSzs3BOlZ1G72W8-4" target="HRV68TSzs3BOlZ1G72W8-8">
          <mxGeometry relative="1" as="geometry" />
        </mxCell>
        <mxCell id="HRV68TSzs3BOlZ1G72W8-4" value="a" style="shape=parallelogram;perimeter=parallelogramPerimeter;whiteSpace=wrap;html=1;fixedSize=1;" vertex="1" parent="1">
          <mxGeometry x="140" y="360" width="120" height="80" as="geometry" />
        </mxCell>
        <mxCell id="HRV68TSzs3BOlZ1G72W8-10" style="edgeStyle=orthogonalEdgeStyle;rounded=0;orthogonalLoop=1;jettySize=auto;html=1;exitX=0.5;exitY=1;exitDx=0;exitDy=0;entryX=1;entryY=0.5;entryDx=0;entryDy=0;" edge="1" parent="1" source="HRV68TSzs3BOlZ1G72W8-5" target="HRV68TSzs3BOlZ1G72W8-8">
          <mxGeometry relative="1" as="geometry" />
        </mxCell>
        <mxCell id="HRV68TSzs3BOlZ1G72W8-5" value="b" style="shape=parallelogram;perimeter=parallelogramPerimeter;whiteSpace=wrap;html=1;fixedSize=1;" vertex="1" parent="1">
          <mxGeometry x="480" y="360" width="120" height="80" as="geometry" />
        </mxCell>
        <mxCell id="HRV68TSzs3BOlZ1G72W8-7" style="edgeStyle=orthogonalEdgeStyle;rounded=0;orthogonalLoop=1;jettySize=auto;html=1;exitX=1;exitY=0.5;exitDx=0;exitDy=0;entryX=0.611;entryY=0.046;entryDx=0;entryDy=0;entryPerimeter=0;" edge="1" parent="1" source="HRV68TSzs3BOlZ1G72W8-3" target="HRV68TSzs3BOlZ1G72W8-5">
          <mxGeometry relative="1" as="geometry" />
        </mxCell>
        <mxCell id="HRV68TSzs3BOlZ1G72W8-8" value="Kết thúc chương trình" style="ellipse;whiteSpace=wrap;html=1;" vertex="1" parent="1">
          <mxGeometry x="320" y="480" width="120" height="80" as="geometry" />
        </mxCell>
        <mxCell id="HRV68TSzs3BOlZ1G72W8-11" value="a&amp;lt;b" style="text;html=1;align=center;verticalAlign=middle;whiteSpace=wrap;rounded=0;" vertex="1" parent="1">
          <mxGeometry x="210" y="270" width="60" height="30" as="geometry" />
        </mxCell>
        <mxCell id="HRV68TSzs3BOlZ1G72W8-12" value="a&amp;gt;b" style="text;html=1;align=center;verticalAlign=middle;whiteSpace=wrap;rounded=0;" vertex="1" parent="1">
          <mxGeometry x="480" y="270" width="60" height="30" as="geometry" />
        </mxCell>
      </root>
    </mxGraphModel>
  </diagram>
</mxfile>
